<svg width="174" height="58" viewBox="0 0 174 58" fill="none" xmlns="http://www.w3.org/2000/svg">
<circle cx="29" cy="29" r="29" fill="#232323"/>
<path d="M16.2197 12L27.488 20.0488V45H16.2197V12Z" fill="white"/>
<path d="M31.5127 26.4873L42.781 31.0025V44.9995H31.5127V26.4873Z" fill="white"/>
<circle cx="37.1465" cy="20.8535" r="4.02439" fill="#EE332B"/>
<path d="M73 15.6744H78.928L87.4249 34.2408L95.9613 15.6744H101.85V43.4049H96.1194V27.6553L88.8081 43.4049H86.0417L78.77 27.6553V43.4049H73V15.6744Z" fill="white"/>
<path d="M109.278 21.4268C108.356 21.4268 107.579 21.1227 106.946 20.5144C106.314 19.9061 105.998 19.1391 105.998 18.2134C105.998 17.3142 106.314 16.5604 106.946 15.9521C107.579 15.3174 108.356 15 109.278 15C110.2 15 110.977 15.3174 111.61 15.9521C112.242 16.5604 112.558 17.3142 112.558 18.2134C112.558 19.1391 112.242 19.9061 111.61 20.5144C110.977 21.1227 110.2 21.4268 109.278 21.4268ZM106.275 24.3625H112.282V43.4049H106.275V24.3625Z" fill="white"/>
<path d="M124.435 44C123.013 44 121.485 43.8413 119.851 43.5239C118.244 43.233 116.979 42.8098 116.057 42.2544V37.5732C117.111 38.2079 118.376 38.7237 119.851 39.1204C121.326 39.5171 122.696 39.7155 123.961 39.7155C125.041 39.7155 125.832 39.6229 126.332 39.4378C126.833 39.2526 127.083 38.9088 127.083 38.4063C127.083 38.0096 126.938 37.6922 126.649 37.4542C126.359 37.1897 125.911 36.9649 125.305 36.7798C124.725 36.5682 123.75 36.264 122.38 35.8673C120.773 35.3912 119.508 34.9152 118.586 34.4391C117.691 33.9366 117.006 33.3151 116.531 32.5746C116.083 31.834 115.859 30.8819 115.859 29.7182C115.859 27.7346 116.637 26.2535 118.191 25.275C119.772 24.2699 121.906 23.7674 124.593 23.7674C125.911 23.7674 127.268 23.9129 128.664 24.2038C130.087 24.4683 131.18 24.8254 131.944 25.275V29.8372C131.18 29.3347 130.179 28.9248 128.941 28.6074C127.729 28.29 126.543 28.1313 125.384 28.1313C124.304 28.1313 123.461 28.2371 122.855 28.4487C122.275 28.6603 121.985 29.057 121.985 29.6389C121.985 30.1414 122.262 30.5249 122.815 30.7893C123.395 31.0538 124.462 31.3844 126.016 31.7811L126.807 31.9795C128.466 32.4291 129.757 32.9316 130.68 33.487C131.602 34.016 132.247 34.6639 132.616 35.4309C133.011 36.1715 133.209 37.1104 133.209 38.2476C133.209 39.9932 132.458 41.3949 130.956 42.4528C129.454 43.4843 127.281 44 124.435 44Z" fill="white"/>
<path d="M143.929 44C141.716 44 140.03 43.3917 138.87 42.1751C137.738 40.9321 137.171 39.2129 137.171 37.0178V28.6867H134.405V24.3625H137.171V18.6498H143.139V24.3625H147.604V28.6867H143.139V36.2243C143.139 37.3352 143.349 38.1418 143.771 38.6443C144.193 39.1204 144.943 39.3584 146.024 39.3584C146.893 39.3584 147.723 39.1468 148.513 38.7237V43.2066C147.301 43.7355 145.773 44 143.929 44Z" fill="white"/>
<path d="M151.269 24.3625H157.039V27.0999C157.803 26.1742 158.87 25.4733 160.24 24.9973C161.61 24.4948 163.164 24.2435 164.903 24.2435V28.8057C163.085 28.8057 161.478 29.0834 160.082 29.6389C158.712 30.1943 157.763 31.0406 157.236 32.1778V43.4049H151.269V24.3625Z" fill="white"/>
<path d="M170.72 21.4268C169.798 21.4268 169.02 21.1227 168.388 20.5144C167.756 19.9061 167.44 19.1391 167.44 18.2134C167.44 17.3142 167.756 16.5604 168.388 15.9521C169.02 15.3174 169.798 15 170.72 15C171.642 15 172.419 15.3174 173.052 15.9521C173.684 16.5604 174 17.3142 174 18.2134C174 19.1391 173.684 19.9061 173.052 20.5144C172.419 21.1227 171.642 21.4268 170.72 21.4268ZM167.716 24.3625H173.723V43.4049H167.716V24.3625Z" fill="white"/>
</svg>
