<svg width="137" height="33" viewBox="0 0 137 33" fill="none" xmlns="http://www.w3.org/2000/svg">
<path d="M0 0L11.2683 8.04879V33H0V0Z" fill="white"/>
<path d="M15.293 14.4878L26.5613 19.003V33H15.293V14.4878Z" fill="white"/>
<circle cx="20.9267" cy="8.85374" r="4.02439" fill="white"/>
<path d="M36 3.67442H41.928L50.4249 22.2408L58.9613 3.67442H64.8498V31.4049H59.1194V15.6553L51.8081 31.4049H49.0417L41.77 15.6553V31.4049H36V3.67442Z" fill="white"/>
<path d="M72.2781 9.42681C71.356 9.42681 70.5787 9.12266 69.9464 8.51436C69.3141 7.90606 68.9979 7.13908 68.9979 6.2134C68.9979 5.31418 69.3141 4.56042 69.9464 3.95212C70.5787 3.31737 71.356 3 72.2781 3C73.2002 3 73.9775 3.31737 74.6098 3.95212C75.2421 4.56042 75.5583 5.31418 75.5583 6.2134C75.5583 7.13908 75.2421 7.90606 74.6098 8.51436C73.9775 9.12266 73.2002 9.42681 72.2781 9.42681ZM69.2746 12.3625H75.2816V31.4049H69.2746V12.3625Z" fill="white"/>
<path d="M87.4354 32C86.0126 32 84.4845 31.8413 82.851 31.5239C81.2439 31.233 79.9792 30.8098 79.0571 30.2544V25.5732C80.1109 26.2079 81.3756 26.7237 82.851 27.1204C84.3264 27.5171 85.6965 27.7155 86.9611 27.7155C88.0413 27.7155 88.8318 27.6229 89.3323 27.4378C89.8329 27.2526 90.0832 26.9088 90.0832 26.4063C90.0832 26.0096 89.9383 25.6922 89.6485 25.4542C89.3587 25.1897 88.9108 24.9649 88.3048 24.7798C87.7252 24.5682 86.7504 24.264 85.3803 23.8673C83.7732 23.3912 82.5085 22.9152 81.5864 22.4391C80.6906 21.9366 80.0056 21.3151 79.5313 20.5746C79.0834 19.834 78.8595 18.8819 78.8595 17.7182C78.8595 15.7346 79.6367 14.2535 81.1912 13.275C82.772 12.2699 84.9061 11.7674 87.5934 11.7674C88.9108 11.7674 90.2677 11.9129 91.664 12.2038C93.0868 12.4683 94.1802 12.8254 94.9442 13.275V17.8372C94.1802 17.3347 93.179 16.9248 91.9407 16.6074C90.7287 16.29 89.5431 16.1313 88.3839 16.1313C87.3036 16.1313 86.4605 16.2371 85.8546 16.4487C85.2749 16.6603 84.9851 17.057 84.9851 17.6389C84.9851 18.1414 85.2617 18.5249 85.815 18.7893C86.3947 19.0538 87.4617 19.3844 89.0162 19.7811L89.8066 19.9795C91.4664 20.4291 92.7574 20.9316 93.6796 21.487C94.6017 22.016 95.2472 22.6639 95.6161 23.4309C96.0113 24.1715 96.2089 25.1104 96.2089 26.2476C96.2089 27.9932 95.458 29.3949 93.9562 30.4528C92.4544 31.4843 90.2808 32 87.4354 32Z" fill="white"/>
<path d="M106.929 32C104.716 32 103.03 31.3917 101.87 30.1751C100.738 28.9321 100.171 27.2129 100.171 25.0178V16.6867H97.4047V12.3625H100.171V6.64979H106.139V12.3625H110.604V16.6867H106.139V24.2243C106.139 25.3352 106.349 26.1418 106.771 26.6443C107.193 27.1204 107.943 27.3584 109.024 27.3584C109.893 27.3584 110.723 27.1468 111.513 26.7237V31.2066C110.301 31.7355 108.773 32 106.929 32Z" fill="white"/>
<path d="M114.269 12.3625H120.039V15.0999C120.803 14.1742 121.87 13.4733 123.24 12.9973C124.61 12.4948 126.164 12.2435 127.903 12.2435V16.8057C126.085 16.8057 124.478 17.0834 123.082 17.6389C121.712 18.1943 120.763 19.0406 120.236 20.1778V31.4049H114.269V12.3625Z" fill="white"/>
<path d="M133.72 9.42681C132.798 9.42681 132.02 9.12266 131.388 8.51436C130.756 7.90606 130.44 7.13908 130.44 6.2134C130.44 5.31418 130.756 4.56042 131.388 3.95212C132.02 3.31737 132.798 3 133.72 3C134.642 3 135.419 3.31737 136.052 3.95212C136.684 4.56042 137 5.31418 137 6.2134C137 7.13908 136.684 7.90606 136.052 8.51436C135.419 9.12266 134.642 9.42681 133.72 9.42681ZM130.716 12.3625H136.723V31.4049H130.716V12.3625Z" fill="white"/>
</svg>
